<mxfile host="app.diagrams.net" modified="2023-04-05T18:42:34.764Z" agent="Mozilla/5.0 (Windows NT 10.0; Win64; x64) AppleWebKit/537.36 (KHTML, like Gecko) Chrome/111.0.0.0 Safari/537.36" etag="hY1van2epRSjjEogEU3y" version="21.1.2" type="device">
  <diagram name="Page-1" id="gGy3PLAOti1ymrxzRgXb">
    <mxGraphModel dx="1290" dy="541" grid="1" gridSize="10" guides="1" tooltips="1" connect="1" arrows="1" fold="1" page="1" pageScale="1" pageWidth="850" pageHeight="1100" math="0" shadow="0">
      <root>
        <mxCell id="0" />
        <mxCell id="1" parent="0" />
        <mxCell id="sl7KtG33gV2JrOP8GscB-4" style="edgeStyle=orthogonalEdgeStyle;rounded=0;orthogonalLoop=1;jettySize=auto;html=1;exitX=1;exitY=0.5;exitDx=0;exitDy=0;" edge="1" parent="1" source="sl7KtG33gV2JrOP8GscB-1" target="sl7KtG33gV2JrOP8GscB-2">
          <mxGeometry relative="1" as="geometry" />
        </mxCell>
        <mxCell id="sl7KtG33gV2JrOP8GscB-1" value="Start" style="ellipse;whiteSpace=wrap;html=1;" vertex="1" parent="1">
          <mxGeometry width="120" height="80" as="geometry" />
        </mxCell>
        <mxCell id="sl7KtG33gV2JrOP8GscB-7" style="edgeStyle=orthogonalEdgeStyle;rounded=0;orthogonalLoop=1;jettySize=auto;html=1;exitX=1;exitY=0.5;exitDx=0;exitDy=0;" edge="1" parent="1" source="sl7KtG33gV2JrOP8GscB-2">
          <mxGeometry relative="1" as="geometry">
            <mxPoint x="360" y="40" as="targetPoint" />
          </mxGeometry>
        </mxCell>
        <mxCell id="sl7KtG33gV2JrOP8GscB-2" value="Open the encoded file," style="shape=parallelogram;perimeter=parallelogramPerimeter;whiteSpace=wrap;html=1;fixedSize=1;" vertex="1" parent="1">
          <mxGeometry x="160" y="10" width="150" height="60" as="geometry" />
        </mxCell>
        <mxCell id="sl7KtG33gV2JrOP8GscB-9" style="edgeStyle=orthogonalEdgeStyle;rounded=0;orthogonalLoop=1;jettySize=auto;html=1;exitX=1;exitY=0.5;exitDx=0;exitDy=0;entryX=0;entryY=0.5;entryDx=0;entryDy=0;" edge="1" parent="1" source="sl7KtG33gV2JrOP8GscB-6" target="sl7KtG33gV2JrOP8GscB-8">
          <mxGeometry relative="1" as="geometry" />
        </mxCell>
        <mxCell id="sl7KtG33gV2JrOP8GscB-6" value="Read each encoded entry from the file" style="rounded=0;whiteSpace=wrap;html=1;" vertex="1" parent="1">
          <mxGeometry x="360" y="10" width="120" height="60" as="geometry" />
        </mxCell>
        <mxCell id="sl7KtG33gV2JrOP8GscB-13" style="edgeStyle=orthogonalEdgeStyle;rounded=0;orthogonalLoop=1;jettySize=auto;html=1;exitX=0.5;exitY=1;exitDx=0;exitDy=0;" edge="1" parent="1" source="sl7KtG33gV2JrOP8GscB-8" target="sl7KtG33gV2JrOP8GscB-10">
          <mxGeometry relative="1" as="geometry" />
        </mxCell>
        <mxCell id="sl7KtG33gV2JrOP8GscB-8" value="Decode each encoded entry from the file" style="rounded=0;whiteSpace=wrap;html=1;" vertex="1" parent="1">
          <mxGeometry x="540" y="10" width="120" height="60" as="geometry" />
        </mxCell>
        <mxCell id="sl7KtG33gV2JrOP8GscB-12" style="edgeStyle=orthogonalEdgeStyle;rounded=0;orthogonalLoop=1;jettySize=auto;html=1;exitX=1;exitY=0.5;exitDx=0;exitDy=0;entryX=0;entryY=0.5;entryDx=0;entryDy=0;" edge="1" parent="1" source="sl7KtG33gV2JrOP8GscB-10" target="sl7KtG33gV2JrOP8GscB-11">
          <mxGeometry relative="1" as="geometry" />
        </mxCell>
        <mxCell id="sl7KtG33gV2JrOP8GscB-10" value="Display the decoded data on the screen" style="shape=parallelogram;perimeter=parallelogramPerimeter;whiteSpace=wrap;html=1;fixedSize=1;" vertex="1" parent="1">
          <mxGeometry x="160" y="120" width="210" height="60" as="geometry" />
        </mxCell>
        <mxCell id="sl7KtG33gV2JrOP8GscB-15" style="edgeStyle=orthogonalEdgeStyle;rounded=0;orthogonalLoop=1;jettySize=auto;html=1;exitX=1;exitY=0.5;exitDx=0;exitDy=0;entryX=0;entryY=0.5;entryDx=0;entryDy=0;" edge="1" parent="1" source="sl7KtG33gV2JrOP8GscB-11" target="sl7KtG33gV2JrOP8GscB-14">
          <mxGeometry relative="1" as="geometry" />
        </mxCell>
        <mxCell id="sl7KtG33gV2JrOP8GscB-11" value="Calculate the compression ratio attribute" style="rounded=0;whiteSpace=wrap;html=1;" vertex="1" parent="1">
          <mxGeometry x="420" y="120" width="120" height="60" as="geometry" />
        </mxCell>
        <mxCell id="sl7KtG33gV2JrOP8GscB-14" value="End" style="ellipse;whiteSpace=wrap;html=1;" vertex="1" parent="1">
          <mxGeometry x="610" y="110" width="120" height="80" as="geometry" />
        </mxCell>
      </root>
    </mxGraphModel>
  </diagram>
</mxfile>
